<svg xmlns="http://www.w3.org/2000/svg" version="1.1" xmlns:xlink="http://www.w3.org/1999/xlink" width="512" height="512" x="0" y="0" viewBox="0 0 40 40" style="enable-background:new 0 0 512 512" xml:space="preserve" class=""><g><g fill="#000" fill-rule="evenodd" clip-rule="evenodd"><path d="M26.25 5c0-.69.56-1.25 1.25-1.25h6a2.744 2.744 0 0 1 2.75 2.75v5.8a1.25 1.25 0 1 1-2.5 0V6.5a.244.244 0 0 0-.25-.25h-6c-.69 0-1.25-.56-1.25-1.25zM6.5 6.25a.244.244 0 0 0-.25.25v6a1.25 1.25 0 1 1-2.5 0v-6A2.744 2.744 0 0 1 6.5 3.75h5.8a1.25 1.25 0 1 1 0 2.5zM5 26.25c.69 0 1.25.56 1.25 1.25v6c0 .143.107.25.25.25h5.95a1.25 1.25 0 1 1 0 2.5H6.5a2.744 2.744 0 0 1-2.75-2.75v-6c0-.69.56-1.25 1.25-1.25zM35 26.233c.69 0 1.25.56 1.25 1.25V33.5a2.744 2.744 0 0 1-2.75 2.75h-6a1.25 1.25 0 1 1 0-2.5h6c.143 0 .25-.107.25-.25v-6.017c0-.69.56-1.25 1.25-1.25z" fill="#ffffff" opacity="1" data-original="#000000" class=""></path></g></g></svg>