<svg id="fi_4043845" enable-background="new 0 0 512 512"  viewBox="0 0 512 512"  xmlns="http://www.w3.org/2000/svg"><path d="m311.84 122.994c-6.249-6.248-6.249-16.379 0-22.627 6.248-6.248 16.379-6.248 22.627 0l75.505 75.505c6.249 6.248 6.249 16.379 0 22.627-3.124 3.124-7.219 4.687-11.313 4.687s-8.189-1.563-11.313-4.687zm200.16 371.295c0 8.837-7.163 16-16 16 0 0-315.361.051-315.362.051-17.001.005-34.054-5.418-48.428-14.389-6.329-3.95-12.185-8.669-17.458-13.942 0 0-86.421-86.422-86.421-86.422-34.592-34.591-37.98-87.486-7.555-117.912l255.237-255.237c30.427-30.426 83.323-27.036 117.913 7.555l86.421 86.421c34.592 34.592 37.98 87.487 7.555 117.913l-243.964 243.962h252.062c8.837 0 16 7.163 16 16zm-405.786-256.798 166.634 166.634 192.426-192.426c17.949-17.949 14.56-50.544-7.555-72.659l-86.421-86.421c-12.56-12.56-28.504-19.08-43.222-19.08-11.196 0-21.682 3.771-29.438 11.525zm31.165 221.891c22.114 22.114 54.708 25.502 72.659 7.554l40.184-40.184-166.635-166.634-40.184 40.184c-17.949 17.949-14.56 50.543 7.555 72.658z"></path></svg>