<svg id="fi_2542460" enable-background="new 0 0 512 512" height="512" viewBox="0 0 512 512" width="512" xmlns="http://www.w3.org/2000/svg" xmlns:xlink="http://www.w3.org/1999/xlink"><linearGradient id="SVGID_1_" gradientUnits="userSpaceOnUse" x1="15.63" x2="496.37" y1="256" y2="256"><stop offset=".0007233796" stop-color="#ffd6bb"></stop><stop offset=".9993" stop-color="#ffd9d9" stop-opacity="0"></stop></linearGradient><g><g><path d="m20.722 179.563c26.255 85.007 107.775 89.005 182.131 93.553 244.867 14.978-63.002 218.186 146.697 238.304 77.136 7.4 157.788-56.956 145.59-140.291-11.107-75.879-121.152-121.073-121.207-191.979-.043-55.945 103.86-96.409 36.272-156.553-60.249-53.612-442.871-15.888-389.483 156.966z" fill="url(#SVGID_1_)"></path></g><g><path d="m437.461 85.854h-362.922c-5.523 0-10 4.477-10 10v33.53c0 5.523 4.477 10 10 10h7.171v256.647c0 5.52 4.48 10 10 10h159.29v.001 39.107c-7.636 2.48-13.175 9.655-13.175 18.107 0 10.5 8.542 19.042 19.042 19.042s19.042-8.542 19.042-19.042c0-9.079-6.392-16.682-14.908-18.577v-38.637-.001h159.29c5.52 0 10-4.48 10-10v-256.648h7.171c5.523 0 10-4.477 10-10v-33.53c-.001-5.522-4.479-9.999-10.001-9.999zm-171.553 377.392c0 4.986-4.056 9.042-9.042 9.042s-9.042-4.056-9.042-9.042 4.056-9.042 9.042-9.042 9.042 4.056 9.042 9.042z" fill="#00c" opacity=".1"></path><g><path d="m430.29 104.091v267.94c0 5.52-4.48 10-10 10h-328.58c-5.52 0-10-4.48-10-10v-267.94z" fill="#fff"></path><path d="m81.71 104.091h348.58v35.29h-348.58z" fill="#fff3ee"></path><path d="m437.461 115.383h-362.922c-5.523 0-10-4.477-10-10v-33.53c0-5.523 4.477-10 10-10h362.921c5.523 0 10 4.477 10 10v33.53c.001 5.523-4.477 10-9.999 10z" fill="#ffab66"></path><path d="m437.46 56.854h-362.92c-8.271 0-15 6.729-15 15v33.53c0 8.271 6.729 15 15 15h257.298c2.761 0 5-2.239 5-5s-2.239-5-5-5h-257.298c-2.757 0-5-2.243-5-5v-33.53c0-2.757 2.243-5 5-5h362.92c2.757 0 5 2.243 5 5v33.53c0 2.757-2.243 5-5 5h-72.632c-2.761 0-5 2.239-5 5s2.239 5 5 5h60.458v251.649c0 2.757-2.243 5-5 5h-328.573c-2.757 0-5-2.243-5-5v-223.659c0-2.761-2.239-5-5-5s-5 2.239-5 5v223.658c0 8.271 6.729 15 15 15h159.287v34.107c-7.636 2.48-13.175 9.655-13.175 18.107 0 10.5 8.542 19.042 19.042 19.042s19.042-8.542 19.042-19.042c0-9.079-6.392-16.682-14.908-18.577v-33.637h159.287c8.271 0 15-6.729 15-15v-251.649h2.173c8.271 0 15-6.729 15-15v-33.53c-.001-8.27-6.73-14.999-15.001-14.999zm-171.552 382.392c0 4.985-4.056 9.042-9.042 9.042s-9.042-4.056-9.042-9.042 4.056-9.042 9.042-9.042 9.042 4.056 9.042 9.042z" fill="#00c"></path></g><g><g><g><g><path d="m390.597 309.79h-16.52c-2.762 0-5-2.239-5-5s2.238-5 5-5h16.52c2.762 0 5 2.239 5 5s-2.238 5-5 5z" fill="#ff6c6c"></path></g><g><path d="m354.487 309.79h-7.52c-2.762 0-5-2.239-5-5s2.238-5 5-5h7.52c2.762 0 5 2.239 5 5s-2.239 5-5 5z" fill="#ff6c6c"></path></g><g><path d="m390.597 330.066h-94.74c-2.762 0-5-2.239-5-5s2.238-5 5-5h94.74c2.762 0 5 2.239 5 5s-2.238 5-5 5z" fill="#b3b3ff"></path></g><g><path d="m390.597 347.342h-94.74c-2.762 0-5-2.239-5-5s2.238-5 5-5h94.74c2.762 0 5 2.239 5 5s-2.238 5-5 5z" fill="#b3b3ff"></path></g></g><g><path d="m382.609 208.407h-54.533v54.533c0 1.713-1.435 3.095-3.146 3.003-31.259-1.681-55.897-28.269-54.421-60.263 1.361-29.519 25.32-53.479 54.84-54.84 31.994-1.476 58.582 23.162 60.263 54.421.092 1.711-1.289 3.146-3.003 3.146z" fill="#9494ff"></path><path d="m400.568 226.517c-1.581 29.309-25.072 52.8-54.381 54.381-1.714.092-3.154-1.288-3.154-3.004v-51.531c0-1.657 1.343-3 3-3h51.531c1.716 0 3.097 1.44 3.004 3.154z" fill="#ff6c6c"></path><g><g><path d="m311.781 249.03c-3.094 0-5.603-2.509-5.603-5.603v-.129c0-3.094 2.509-5.603 5.603-5.603s5.603 2.509 5.603 5.603v.129c0 3.094-2.509 5.603-5.603 5.603z" fill="#fff"></path></g></g><g><g><path d="m377.446 244.07c-3.094 0-5.603-2.509-5.603-5.603v-.129c0-3.094 2.509-5.603 5.603-5.603s5.603 2.509 5.603 5.603v.129c-.001 3.094-2.509 5.603-5.603 5.603z" fill="#fff"></path></g></g></g></g><path d="m232.557 347.341h-118.09c-1.657 0-3-1.343-3-3v-80.047c0-2.673 3.231-4.011 5.121-2.121l14.289 14.289 13.269-13.277c1.171-1.172 3.071-1.173 4.243-.001z" fill="#ffab66"></path><path d="m266.057 287.011v57.33c0 1.657-1.343 3-3 3h-148.59c-1.657 0-3-1.343-3-3v-22.16l21.63-21.63c1.171-1.171 3.07-1.172 4.242-.001l8.939 8.931 27.599-27.599c1.172-1.172 3.071-1.172 4.243 0l8.579 8.579 39.288-39.288c1.172-1.172 3.071-1.172 4.243 0z" fill="#ff6c6c"></path><g><g><path d="m116.428 177.202h16.52c2.762 0 5-2.239 5-5s-2.238-5-5-5h-16.52c-2.762 0-5 2.239-5 5s2.238 5 5 5z" fill="#ff6c6c"></path></g><g><path d="m152.538 177.202h10.52c2.762 0 5-2.239 5-5s-2.238-5-5-5h-10.52c-2.762 0-5 2.239-5 5s2.238 5 5 5z" fill="#ff6c6c"></path></g><path d="m116.428 197.478h94.74c2.762 0 5-2.239 5-5s-2.238-5-5-5h-94.74c-2.762 0-5 2.239-5 5s2.238 5 5 5z" fill="#b3b3ff"></path></g><g><g><path d="m116.428 221.501h10.52c2.762 0 5-2.239 5-5s-2.238-5-5-5h-10.52c-2.762 0-5 2.239-5 5s2.238 5 5 5z" fill="#ffab66"></path></g><g><path d="m146.538 221.501h37.52c2.762 0 5-2.239 5-5s-2.238-5-5-5h-37.52c-2.762 0-5 2.239-5 5s2.238 5 5 5z" fill="#ffab66"></path></g><path d="m116.428 241.777h94.74c2.762 0 5-2.239 5-5s-2.238-5-5-5h-94.74c-2.762 0-5 2.239-5 5s2.238 5 5 5z" fill="#b3b3ff"></path></g></g><path d="m157.538 427.632h-3v-3c0-2.761-2.239-5-5-5s-5 2.239-5 5v3h-3c-2.761 0-5 2.239-5 5s2.239 5 5 5h3v3c0 2.761 2.239 5 5 5s5-2.239 5-5v-3h3c2.761 0 5-2.239 5-5s-2.239-5-5-5z" fill="#ff6c6c"></path><path d="m472.726 357.386h-3v-3c0-2.761-2.239-5-5-5s-5 2.239-5 5v3h-3c-2.761 0-5 2.239-5 5s2.239 5 5 5h3v3c0 2.761 2.239 5 5 5s5-2.239 5-5v-3h3c2.761 0 5-2.239 5-5s-2.239-5-5-5z" fill="#ffab66"></path><path d="m55.274 150.355h-3v-3c0-2.761-2.239-5-5-5s-5 2.239-5 5v3h-3c-2.761 0-5 2.239-5 5s2.239 5 5 5h3v3c0 2.761 2.239 5 5 5s5-2.239 5-5v-3h3c2.761 0 5-2.239 5-5s-2.239-5-5-5z" fill="#6c6cff"></path><g><g><path d="m458.46 409.764c-1.28 0-2.559-.488-3.536-1.464l-4.464-4.464-4.464 4.464c-1.953 1.952-5.118 1.952-7.071 0-1.953-1.953-1.953-5.119 0-7.071l8-8c1.953-1.952 5.118-1.952 7.071 0l8 8c1.953 1.953 1.953 5.119 0 7.071-.976.975-2.256 1.464-3.536 1.464z" fill="#6c6cff"></path></g></g><g><g><path d="m211.335 42.712c-1.28 0-2.559-.488-3.536-1.464l-4.464-4.464-4.464 4.464c-1.953 1.952-5.118 1.952-7.071 0-1.953-1.953-1.953-5.119 0-7.071l8-8c1.953-1.952 5.118-1.952 7.071 0l8 8c1.953 1.953 1.953 5.119 0 7.071-.977.976-2.256 1.464-3.536 1.464z" fill="#ffab66"></path></g></g></g></g></svg>