<svg  viewBox="-64 0 479 479.99545"  xmlns="http://www.w3.org/2000/svg" id="fi_1164631"><path d="m264.488281 46.460938c-3.738281-2.347657-8.671875-1.21875-11.023437 2.519531l-106.238282 169.199219c-1.554687 2.421874-1.6875 5.492187-.351562 8.039062 1.339844 2.546875 3.941406 4.179688 6.816406 4.277344 2.875.09375 5.582032-1.359375 7.085938-3.8125l106.257812-169.199219c2.339844-3.746094 1.199219-8.683594-2.546875-11.023437zm0 0"></path><path d="m324.65625 25.980469-31.765625-18.464844c-25.667969-14.921875-58.535156-6.992187-74.578125 17.992187l-140.128906 217.085938c0 .050781 0 .113281-.0625.160156-.0625.050782-.136719.136719-.183594.21875l-23.847656 41.519532c-2.191406 3.820312-.882813 8.695312 2.925781 10.902343 13.082031 7.578125 12.914063 41.601563-8.246094 78.402344-1.84375 3.265625-1.132812 7.382813 1.703125 9.839844l-48.902344 84.359375c-1.429687 2.472656-1.429687 5.519531-.003906 7.996094 1.429688 2.472656 4.066406 4 6.921875 4.003906h71.539063c2.765625 0 5.339844-1.429688 6.796875-3.785156l32.449219-52.261719 1.238281.71875c1.214843.707031 2.597656 1.082031 4 1.085937.699219.003906 1.394531-.089844 2.066406-.269531 2.054687-.546875 3.808594-1.894531 4.871094-3.738281 14.015625-24.335938 33.601562-42.878906 49.871093-47.199219 4.378907-1.511719 9.183594-1.195313 13.328126.871094 1.839843 1.074219 4.03125 1.367187 6.089843.816406 2.058594-.550781 3.808594-1.898437 4.871094-3.742187 0 0 24-41.832032 24.082031-41.921876l116.71875-230.6875c13.457032-26.507812 3.917969-58.910156-21.753906-73.902343zm-249.078125 438.015625h-53.207031l41.773437-72.082032 41.289063 24zm119.589844-105.472656c-5.933594-1.332032-12.109375-1.144532-17.949219.542968-18.800781 5.015625-39.578125 23.066406-55.449219 47.824219l-55.320312-32.144531c18.59375-36.101563 20.382812-71.886719 4.90625-88.199219l16.453125-28.640625 123.824218 72zm136.984375-265.886719-112.894532 223.117187-123.082031-71.527344 135.585938-210.046874c11.433593-17.765626 34.8125-23.402344 53.085937-12.800782l31.769532 18.464844c18.320312 10.722656 25.125 33.855469 15.535156 52.792969zm0 0"></path></svg>