<svg id="fi_8582975" enable-background="new 0 0 511.995 511.995"  viewBox="0 0 511.995 511.995"  xmlns="http://www.w3.org/2000/svg"><g><path d="m259.013 424.371c19.813-11.024 49.028-21.608 86.832-31.458 26.583-6.925 48.478-15.858 63.316-25.833 13.658-9.181 20.795-18.907 20.099-27.381-.812-9.96-12.315-20.089-32.395-28.521-24.649-10.354-62.188-18.061-108.525-22.286l-.229-.022c-.035-.005-.07-.01-.105-.015-87.312-11.723-153.029-27.914-195.324-48.122-36.776-17.572-56.248-38.32-57.876-61.663-.154-2.225-.146-4.473.025-6.683.319-4.13-2.77-7.736-6.899-8.056-4.162-.32-7.737 2.77-8.056 6.899-.228 2.937-.239 5.922-.034 8.878 2.031 29.135 24.362 54.085 66.373 74.158 43.703 20.881 110.911 37.518 199.76 49.449.306.043.626.077.973.11 44.857 4.09 80.858 11.414 104.109 21.18 17.68 7.424 22.811 14.118 23.243 15.874-.386 3.334-13.998 22.344-72.236 37.517-39.029 10.169-69.425 21.227-90.344 32.866-24.912 13.86-37.871 29.248-39.618 47.043-1.402 14.329 4.126 34.892 38.42 51.477 3.024 1.468 6.256 2.212 9.604 2.212 8.417 0 16.224-4.896 19.891-12.478 5.287-10.953.683-24.176-10.268-29.478-7.442-3.597-11.089-6.549-12.752-8.212 1.792-2.169 6.179-6.412 16.193-11.983 17.685-9.842 44.602-19.504 80.001-28.718 13.8-3.591 26.56-7.712 37.924-12.25 3.847-1.536 5.72-5.899 4.185-9.746-1.536-3.847-5.904-5.721-9.746-4.185-10.785 4.305-22.944 8.229-36.14 11.664-36.627 9.533-64.727 19.669-83.518 30.127-15.264 8.492-24.065 17.162-24.783 24.432-.934 9.719 13.45 18.191 22.103 22.374 3.512 1.7 4.988 5.941 3.295 9.449-1.194 2.47-3.641 4.004-6.385 4.004-1.06 0-2.087-.238-3.062-.711-26.52-12.826-30.97-26.937-30.033-36.514 1.229-12.53 11.691-24.109 31.982-35.398z"></path><path d="m93.578 161.984c11.108 10.625 25.652 20.081 43.295 28.135 38.695 17.656 89.64 27.38 143.447 27.38 53.809 0 104.753-9.724 143.449-27.38 44.191-20.168 68.529-49.064 68.529-81.364 0-28.194-18.099-53.469-52.338-73.091-3.597-2.06-8.177-.815-10.236 2.778s-.816 8.177 2.777 10.236c29.307 16.794 44.797 37.568 44.797 60.076 0 26.082-21.223 50.131-59.757 67.718-36.783 16.783-85.516 26.026-137.222 26.026-51.705 0-100.437-9.243-137.219-26.026-12.055-5.503-22.448-11.655-31.061-18.363 4.591-2.116 8.748-5.017 12.285-8.544 33.522 24.046 92.26 38.781 155.995 38.781 48.845 0 94.821-8.491 129.46-23.91 33.915-15.097 53.366-35.392 53.366-55.682 0-20.294-19.451-40.593-53.366-55.691-34.638-15.419-80.613-23.911-129.46-23.911-85.944 0-145.831 24.843-169.918 50.918-4.892-2.009-10.235-3.133-15.833-3.169 10.015-13.595 26.493-25.822 48.531-35.875 36.783-16.783 85.516-26.026 137.221-26.026 44.72 0 86.753 6.778 121.557 19.603 3.887 1.431 8.198-.558 9.63-4.444 1.433-3.887-.558-8.199-4.444-9.631-36.446-13.43-80.273-20.528-126.743-20.528-53.808 0-104.751 9.724-143.446 27.38-31.287 14.27-52.852 33.08-62.605 54.533-12.41 6.646-21.151 19.266-22.372 33.991-.658.561-1.306 1.121-1.926 1.673-6.462 5.749-11.98 11.82-16.404 18.045-2.398 3.377-1.606 8.059 1.771 10.458 1.318.937 2.835 1.387 4.337 1.387 2.347 0 4.658-1.098 6.121-3.156 2.444-3.44 5.312-6.846 8.555-10.18 1.73 4.69 4.269 8.99 7.438 12.741-9.136 10.384-13.575 21.065-12.863 31.206 1.245 17.89 18.02 34.673 49.856 49.886 40.92 19.548 105.112 35.302 190.796 46.824.105.014.21.026.315.036 96.322 8.824 150.825 31.449 153.47 63.708 1.5 18.241-14.37 32.566-27.948 41.371-3.475 2.253-4.466 6.898-2.212 10.373 1.437 2.215 3.844 3.42 6.3 3.42 1.398 0 2.813-.391 4.074-1.208 30.816-19.983 35.898-41.04 34.735-55.183-1.744-21.287-17.737-38.732-47.534-51.85-27.795-12.236-67.952-20.833-119.356-25.553-84.055-11.311-146.69-26.61-186.173-45.472-34.882-16.667-40.886-30.582-41.36-37.396-.425-6.066 2.904-13.244 9.44-20.575 5.998 3.41 12.898 5.403 20.249 5.525zm.715-14.982c-15.193 0-27.555-12.36-27.555-27.554 0-2.32.292-4.573.834-6.727 2.337 2.782 5.24 5.716 8.765 8.408 6.91 5.279 17.085 10.302 30.793 10.302 3.902 0 8.1-.425 12.58-1.349-4.17 9.93-13.992 16.92-25.417 16.92zm27.051-32.773c-13.855 4.054-25.763 2.494-35.456-4.684-4.702-3.483-7.961-7.628-9.936-10.637 4.875-4.358 11.302-7.014 18.341-7.014 13.408.001 24.604 9.63 27.051 22.335zm158.976-70.076c46.79 0 90.601 8.031 123.359 22.615 27.428 12.21 44.467 28.299 44.467 41.987 0 13.684-17.038 29.77-44.467 41.979-32.76 14.583-76.57 22.613-123.359 22.613-71.86 0-122.165-17.992-147.398-36.079 2.512-5.424 3.925-11.458 3.925-17.819 0-12.283-5.237-23.361-13.589-31.136 22.312-22.213 78.102-44.16 157.062-44.16z"></path></g></svg>