<svg fill="none"  viewBox="0 0 40 40"  xmlns="http://www.w3.org/2000/svg" id="fi_10513555"><g clip-rule="evenodd" fill="#000" fill-rule="evenodd"><path d="m28.9834 6.25c-.6071 0-1.2301.12952-1.8267.3736-.5779.23642-1.0888.57628-1.5395 1.02695l-17.49996 17.48335c.00014-.0002-.00014.0001 0 0-.43053.4307-.69973.9653-.77838 1.5495l-.00145.0108-.99992 6.9683 6.98221-1.0018c.6346-.0838 1.2067-.3553 1.6287-.7769.0004-.0003-.0003.0004 0 0l17.3986-17.4985.0025-.0025c.4358-.4358.7914-.9638 1.0269-1.5394l.0046-.0112.0048-.0111c.2448-.567.3642-1.1805.3642-1.8045 0-.607-.1295-1.22998-.3736-1.82662-.2408-.58882-.5817-1.10708-1.0136-1.52634l-.0134-.013c-.4358-.43577-.9637-.79156-1.5393-1.02704l-.0112-.00457-.0111-.00479c-.567-.24483-1.1804-.36424-1.8044-.36424zm-2.7733-1.94027c.87-.35592 1.8136-.55973 2.7733-.55973.9388 0 1.888.17911 2.7844.56432.8837.3633 1.6828.90347 2.343 1.56197.6979.6794 1.2215 1.49209 1.5795 2.3671.3559.87002.5597 1.81361.5597 2.77321 0 .9388-.1791 1.8881-.5643 2.7845-.3643.8861-.9064 1.6872-1.5674 2.3484.0003-.0003-.0004.0004 0 0l-17.3985 17.4985-.0026.0026c-.8427.8427-1.9339 1.337-3.0628 1.4877l-7.49891 1.0759c-.33498.0674-.62616.0277-.7359.0127-.00963-.0013-.01786-.0024-.0246-.0032l-.09566-.012-.0927-.0265c-.31053-.0887-.59876-.2548-.83844-.4834-.33102-.2985-.4666-.6639-.51582-.7965-.0022-.006-.00422-.0114-.00608-.0164l-.01767-.0471-.01382-.0484c-.06024-.2108-.13296-.5771-.02202-.9977l1.06843-7.4458c.00026-.0019.00052-.0038.00078-.0058.15566-1.1465.68627-2.1768 1.48748-2.978l17.50003-17.48332c.0001-.00014-.0002.00014 0 0 .6825-.68247 1.472-1.20954 2.3606-1.57305z"></path><path d="m29.2702 10.7524c.4865.4898.4839 1.2812-.0059 1.7678l-2.5333 2.5166c-.4898.4865-1.2812.4839-1.7678-.0059-.4865-.4897-.4839-1.2812.0059-1.7677l2.5333-2.5166c.4898-.4866 1.2812-.484 1.7678.0058z"></path></g></svg>