<svg id="fi_6726502" height="512" viewBox="0 0 16.933333 16.933334" width="512" xmlns="http://www.w3.org/2000/svg" xmlns:svg="http://www.w3.org/2000/svg"><g id="layer1"><path id="path12989" d="m4.3052407.00210487c-.45354.028-.8998501.13355001-1.31577.31367002-1.7924901.77626001-2.71630011 2.86853011-1.8909701 4.64349001.7292301 1.5683101 2.6729502 2.3745201 4.3152801 1.6360302 1.4324301-.6441202 2.16882-2.3379602 1.4754601-3.7624401-.59518-1.2227701-2.1369801-1.8467301-3.4243201-1.2340001-1.083.51548-1.63375 1.82282-1.06615 2.9072301.46515.8886799 1.6176599 1.3406401 2.56177.84591.74681-.3913299 1.12366-1.3327801.67081-2.08973-.3406701-.5694302-1.13031-.8578901-1.74523-.4645501-.2144901.1371999-.3684101.3471899-.4330801.58651-.0647.2393202-.0297.52249.15504.7436001.22508.2772299.6496601-.0584.41705-.3296901-.0695-.0832-.0815-.17413-.0522-.2826599.0293-.10852.1105599-.22082.2072299-.28266.32917-.2105501.7888502-.0398.9876102.29248.2866499.47913.0335 1.1068201-.4635701 1.36731-.6593099.34549-1.4922299.0176-1.82792-.6237099-.42279-.8077502-.00101-1.8084102.8242901-2.2013502 1.0035799-.47767 2.2309.0194 2.7028701.98906.5590999 1.1486502-.0432 2.54014-1.21345 3.0663801-1.35924.6111999-2.9917601-.0662-3.6015802-1.37765-.69732002-1.49968.0914-3.2912201 1.6186202-3.9526001.3567099-.15448003.7425399-.24666001 1.1328299-.27078001.35413-.0125.3398301-.52806003-.01446-.52188002-.00696.00047-.01346.00102999-.02016.00203zm12.2259703.03619999c-2.88137 1.67504004-3.94079 3.22962014-4.02535 4.74942014-.0846 1.50519.80801 2.8814601 1.51732 4.1050401.73644 1.2703709 1.34745 2.3744809 1.01603 3.6094809-.34619 1.19125-1.68021 2.47946-5.09048 3.92212-.3201701.1446-.1144602.61735.20672.48626 3.46937-1.46766 4.9791-2.84129 5.39126-4.25955s-.32671-2.7623405-1.07443-4.040451c-.74772-1.27811-1.51122-2.5130699-1.43929-3.79344.0719-1.2803701.97091-2.6937201 3.76386-4.32001012.24611-.13400001.13687-.51976003-.14832-.49607502-.0414.003005-.0817.015805-.11732.037205zm-5.94681 1.54922004c-.44148 0-.7948401.35953-.7948401.79475 0 .43523.3544001.79269.7948401.79269s.79277-.35746.79277-.79269c0-.43522-.3513-.79475-.79277-.79475zm0 .52914c.1441 0 .26357.11636.26357.26561 0 .14926-.1205.26354-.26357.26354s-.26564-.11428-.26564-.26354c0-.14925.12154-.26561.26564-.26561zm4.76799 2.2463102c-.23976-.006-.36273.2850398-.19173.4531799l.2093.2098-.21033.21032c-.25013.2501101.12506.6252601.37519.3751601l.20931-.2103202.20982.2103202c.25013.2501.62532-.12505.37519-.3751601l-.21085-.21032.2093-.2098c.1708-.1679599.0483-.4583002-.19121-.4531799-.0687.00201-.13399.0308-.18192.0801l-.21033.2098-.21034-.2098001c-.0478-.0492-.11284-.0779-.1814-.0801zm-6.6212401 1.1936799c-.4351901 0-.79277.3492801-.79277.79269v1.63551c-.3815601.0694-.8113102.26947-1.1917402.49349-.3777899.2224799-.75012.4940401-1.06512.7777102l-5.40366013-.2604402c-.35315-.016899-.37847.5127802-.0253.5296601l5.05275023.2428704c.029.192089.2829999.3359605.45892.145729.3138199-.3372194.78501-.7017494 1.2501301-.9787195.5030197-.2995498.9404998-.4490601 1.1886398-.4490601.0361.007.0384.007.10853.0331.0701.026001.16276.0668.2656401.1172998.20575.1010301.45534.2393202.6935401.3787701.4764098.27891.9100901.5606701.9100901.5606701.13768.086.17809.2524796.10749.3674096-.037.064101-.0829.088299-.14574.1033515-.067.015-.15958.008-.2604602-.0274l-1.32456-.458871c-.1193599-.0409-.2507401.008-.31422.1173001 0 0-.4560901.7486909-1.1622799.9353209-.3462901.0868-.2092601.60655.1348898.51158.29209-.0772.5370201-.21698.72248-.35346v3.51543h-.64858c-.4733599 0-1.1212301-.23237-1.51164-.59942-.0516-.05-.1214199-.0769-.19328-.0744-.2272599.008-.33953.27959-.1839798.44543l-5.14733032.2284c-.34995001.018-.32494001.54396.0233.52915l5.87291012-.26044c.37221.1692.7726.26044 1.14006.26044h.6485202v.52967c-.0002911.0481.012599.0951.0372.13642l.7948401 1.32236c.1046498.17342.3503199.17053.4532299 0l.7927701-1.32236c.0252-.0412.039-.0881.0393-.13642v-.5276h.79226c.43521 0 .79484-.35426.79484-.79527 0-.20523-.0749-.38906-.20207-.52915.12702-.14067.20207-.32506.20207-.53019 0-.20496-.0747-.38859-.20156-.52863.12674-.14061.20156-.3248.20156-.52966 0-.20497-.0747-.3886-.20156-.52864.12674-.14061.20156-.3248.20156-.52966 0-.44102-.35963-.79269-.79484-.79269h-.0331c.10927-.3447509-.0359-.7267809-.34884-.9249808-.0368-.0234-.19924-.1261602-.41034-.2563101v-2.5232802c0-.4351499-.3503403-.7926898-.7948403-.7926898zm0 .52915h.5297199c.1511699 0 .2656401.11963.2656401.26354v.52915h-1.0589202v-.52915c0-.1439201.1124-.26354.2635602-.26354zm-.2635602 1.32236h1.0589202v1.1456302c-.2411402-.1410002-.4928-.2824602-.71525-.3917-.11298-.0555-.2178-.1032002-.3142202-.1390002-.0102-.004-.0195-.006-.0294-.01zm.1090401 2.718611.60569.2098c-.11635.13746-.1855301.31476-.1855301.51003 0 .20486.0759.38905.2025801.52966-.12684.14004-.2025801.32367-.2025801.52864 0 .20486.0759.38905.2025801.52966-.12684.14004-.2025801.32367-.2025801.52863 0 .20513.0761.38952.2031.53019-.1271299.14009-.2031.32392-.2031.52915 0 .34666.2232501.63717.5297202.7467v.50383l-.5292.8826-.5297202-.8826v-5.00367c.0337-.0465.0867-.10826.1090401-.14262zm1.215.45629h1.0563402c.15118-.00001.26563.11967.26563.26354 0 .14386-.11445.2656-.26563.2656h-1.0563402c-.1511901 0-.2656401-.12174-.2656401-.2656 0-.14387.11445-.26355.2656401-.26354zm3.7039002.26457c-.44147 0-.79535.35953-.79535.79476s.35491.79269.79535.79269.79277-.35746.79277-.79269-.3513-.79476-.79277-.79476zm0 .52915c.1441 0 .26357.11635.26357.26561 0 .14925-.1205.26354-.26357.26354s-.26563-.11429-.26563-.26354c0-.14926.12153-.26561.26563-.26561zm-3.7044201.26509h1.0573701c.15112.000899.26512.1197.26512.26303 0 .14386-.11445.2656-.26563.2656h-1.0563402c-.1511901 0-.2656401-.12174-.2656401-.2656 0-.14333.1140002-.26213.2651202-.26303zm0 1.0583h1.0573701c.15112.000899.26512.1197.26512.26302 0 .14387-.11445.26561-.26563.26561h-1.0563402c-.1511901 0-.2656401-.12174-.2656401-.26561 0-.14332.1140002-.26212.2651202-.26302zm.0005291 1.05881h1.05634c.15117 0 .26562.11968.26562.26355 0 .14386-.11445.2656-.26563.2656h-1.05634c-.1511901 0-.2656401-.12174-.2656401-.2656 0-.14387.11445-.26355.2656401-.26355zm-4.42122 1.77348.20981.2098-.2108602.21032c-.2500199.24999.12466.62463.3746802.37464l.2098199-.21032.2098201.21032c.2500199.24999.6247001-.12465.3746799-.37464l-.2108499-.21032.2098199-.2098c.1707301-.16804.0478-.45842-.1917301-.45318-.0686.002-.1335399.0308-.1813999.0801l-.21034.20979-.2103401-.2098c-.047899-.0492-.1127389-.078-.1813845-.0801-.2395154-.005-.3624655.285145-.1917253.453185z" font-variant-ligatures="normal" font-variant-position="normal" font-variant-caps="normal" font-variant-numeric="normal" font-variant-alternates="normal" font-feature-settings="normal" text-indent="0" text-align="start" text-decoration-line="none" text-decoration-style="solid" text-decoration-color="rgb(0,0,0)" text-transform="none" text-orientation="mixed" white-space="normal" shape-padding="0" isolation="auto" mix-blend-mode="normal" solid-color="rgb(0,0,0)" solid-opacity="1" vector-effect="none"></path></g></svg>